<svg xmlns="http://www.w3.org/2000/svg" viewBox="0 0 1024 1024"><path d="M0 0c4.2 1.9 6.7 4.7 9.6 8.2l1.6 1.9C21.2 22 28.7 35.3 36 49l1.5 2.8c5.8 11 9.5 22.9 13.3 34.6l.8 2.7Q54.5 98 56 107l.4 2.3a228 228 0 0 1 3 42.7c0 14.7-2 28.5-5 42.9l-.7 3.3L52 206h-2l-.3 3c-1 6.5-3.5 12.6-5.9 18.8L39 241c29.9-14 47.7-36 61.2-65.6q1.4-4.3 2-8.7l.4-3.3.4-2.4h3a14 14 0 0 1 2.5 3.7l1.4 2.4 1.4 2.6 1.5 2.6c10.8 19.4 10.8 19.4 11.2 28.7h2c9.7 27.8 12.7 62.6 2.8 90.7l-2.2 7.3q-2.4 7.4-6.2 14.1l-1.3 2.5a178 178 0 0 1-26.7 38.2 269 269 0 0 1-14.3 15.3l-2.3 2.3A237 237 0 0 1 63 383.3q-9.1 8.1-18 16.7l-2.5 2.4A159 159 0 0 0 12 445h-2c-5.8-12.4-5.8-12.4-7.8-18-7-17.7-22.9-31.3-37.2-43l-3-2.4-21.7-17.8A356 356 0 0 1-80 346l-2-1.8a142 142 0 0 1-24-33.2l-1.6-2.5a50 50 0 0 1-4.5-12q-2.6-9-4.3-17.9c-.3-2.5-.3-2.5-1.6-3.6a115 115 0 0 1 11-58.1A173 173 0 0 1-90 188l1.5-2a248 248 0 0 1 24-29q3.9-4.6 7.9-8.8a371 371 0 0 0 16.2-19.3q10.5-13.2 19-27.7l3.7-5.8c5.4-8.9 8.8-18.2 12-28l1.5-4.7c1.7-4.8 2.7-9.2 3.3-14.2C0 42.1 0 42.1 1 41l.1-6.3V22.6Q1.2 11.3 0 0" style="fill:#f0ba4a" transform="translate(494 197)"/><path d="M0 0c18.6 0 18.6 0 25.5.8l2.4.3c20 2.3 20 2.3 25 4.9 3.2 1.5 6.6 2 10 2.7q10.9 2.3 21.3 5.8l2.6.9C92 17 96.4 19.2 101 22l5.7 2c5.3 2.2 10.3 5.2 15.3 8l21 11.7 2 1.3v2l2.1.7c3.5 1.6 6.2 3.8 9 6.4l1.8 1.5 7.9 6.8A145 145 0 0 1 193.2 95a70 70 0 0 1 8.9 16.6q1.4 3.3 3.3 6.2a73 73 0 0 1 6.5 16.7 115 115 0 0 1 4.3 39.6V198l-.1 49.2-.1 53.8c-3.8-.7-6-1.5-9.2-3.8l-14.2-10-2.3-1.5q-10-6.5-20.5-12.2l-2.3-1.3-2-1.2-1.5-1v-2l-2.2-.4a23 23 0 0 1-7.1-3l-8.9-4.7a44 44 0 0 1-6.7-4 26 26 0 0 0-8-3.3c-3.4-1-6-2-9-4.1a35 35 0 0 0-12.5-4.8q-3.8-1-7.6-2.7v-2l-1.7-.3a89 89 0 0 1-11.7-3.2 56 56 0 0 0-9.5-2.4q-7.5-1.3-14.8-3.5C43 223.4 22.7 222.7 0 222z" style="fill:#315c96" transform="translate(271 557)"/><path d="M0 0c1.9 1.9 1.1 4.5 1.1 7v123.2L1 223l-3 .1-15.8.8q-22.3 1.2-44 6.5l-2.6.6q-9.2 2.3-17.8 5.9a67 67 0 0 1-8.4 2.6c-4.8 1.2-9 3.1-13.6 5.2-11.7 5.3-11.7 5.3-17.8 5.3v2l-9 2v2l-3.9 1.5-2.2.8c-1.9.7-1.9.7-3.9.7v2l-3.6 1.5a318 318 0 0 0-55.2 33.2l-2.4 1.7-2 1.5c-1.8 1.1-1.8 1.1-3.8 1.1l-.2-135.4a98 98 0 0 1 5.1-32.3l.8-2.4A131 131 0 0 1-197 116h2l.2-2.5c1-4.3 2.8-7.5 5-11.3l1.4-2.3A169 169 0 0 1-153 58h2v-2l5-4 1.7-1.2A433 433 0 0 1-124 37l2.7-1.8C-119 34-119 34-115 34v-2c25-12.6 25-12.6 30-12v-2C-58.6 7.5-28.6-1.5 0 0" style="fill:#315c96" transform="translate(729 557)"/></svg>